<svg width="44" height="71" viewBox="0 0 44 71" fill="none" xmlns="http://www.w3.org/2000/svg">
<path opacity="0.4" d="M41.5494 69.1458L39.7866 68.4014L37.6308 67.4212C36.8675 67.0377 36.0144 66.6541 35.1538 66.1871C34.6953 65.9514 34.2264 65.7022 33.7471 65.4397C33.7518 65.3906 33.7575 65.3284 33.7641 65.2552C33.7754 65.1652 33.7735 65.0554 33.7792 64.9405C33.862 64.9401 33.9442 64.9288 34.022 64.9068C34.4538 64.7804 34.8552 64.5988 35.2095 64.3695C35.5867 64.1361 35.9227 63.8654 36.209 63.5643C37.1792 62.6127 37.7526 61.1787 38.0039 59.4255C38.0134 59.367 38.0228 59.3092 38.0304 59.2506C38.2269 57.5494 37.1528 55.9214 36.3951 54.7392C36.0956 54.3118 35.8368 53.9421 35.6138 53.6412C35.3144 53.2364 35.082 52.9575 34.9053 52.836C34.8589 52.7951 34.7946 52.7691 34.7249 52.7628C34.4594 52.7504 33.8689 53.0922 33.3144 53.6925C33.0922 53.9361 32.8984 54.1945 32.7353 54.4647C32.0372 55.532 31.6574 57.0268 31.4581 58.6298C31.4524 58.6906 31.4467 58.7506 31.4429 58.8114C31.3362 60.3486 31.9616 61.8199 32.4377 62.9253C32.5889 63.2451 32.7211 63.5343 32.8562 63.7868C33.1396 64.3329 33.373 64.7106 33.6016 64.8658C33.6016 64.887 33.594 64.9075 33.5912 64.928C33.5704 65.04 33.5572 65.1425 33.5326 65.2325C33.526 65.2603 33.5204 65.286 33.5147 65.3109C32.2337 64.6015 30.8931 63.7985 29.5195 62.8952C28.2243 62.0454 26.9055 61.104 25.599 60.0704C25.6097 60.0324 25.622 59.9892 25.6358 59.9409C25.6632 59.853 25.6821 59.744 25.7086 59.6312C25.7903 59.6407 25.8735 59.6385 25.9542 59.6246C26.4052 59.5477 26.8363 59.4126 27.2295 59.225C27.6442 59.0365 28.0253 58.8069 28.3632 58.542C29.4968 57.7083 30.332 56.3526 30.9073 54.6455C30.9271 54.5892 30.947 54.5321 30.9659 54.475C31.476 52.8141 30.7146 51.0829 30.1827 49.829C29.9654 49.3729 29.7784 48.9776 29.6159 48.6577C29.3958 48.2237 29.2163 47.9257 29.0642 47.7793C29.0253 47.7349 28.9663 47.7033 28.8988 47.6908C28.6381 47.649 27.991 47.9213 27.3306 48.4543C27.0655 48.6696 26.8252 48.9025 26.6126 49.1504C25.7246 50.1291 25.0728 51.566 24.5777 53.131C24.5607 53.1903 24.5437 53.2496 24.5286 53.3082C24.1394 54.8168 24.4842 56.3438 24.7516 57.4901C24.846 57.8239 24.9244 58.1255 25.0057 58.3898C25.1814 58.9607 25.3458 59.3611 25.5442 59.5405L25.5215 59.6012C25.4799 59.7088 25.4478 59.8084 25.4072 59.894C25.4072 59.9013 25.4015 59.9087 25.3977 59.916C24.7799 59.4226 24.1665 58.908 23.5575 58.3722C21.7812 56.7982 20.1653 55.1198 18.7243 53.3521L18.7687 53.2664C18.815 53.183 18.8566 53.0783 18.9067 52.9736C18.9854 52.993 19.0679 53.0015 19.1504 52.9985C19.6147 52.979 20.0715 52.8988 20.5013 52.7614C20.9517 52.6286 21.3776 52.4507 21.7682 52.2321C23.0662 51.5536 24.1744 50.3223 25.103 48.7112C25.1351 48.6585 25.1672 48.605 25.1975 48.5509C26.0477 46.9763 25.6698 45.1734 25.4081 43.866C25.2901 43.3888 25.189 42.9759 25.0945 42.637C24.9689 42.1802 24.8555 41.8596 24.7355 41.7022C24.7067 41.6531 24.6551 41.6142 24.591 41.5932C24.3425 41.52 23.6463 41.7059 22.8829 42.1473C22.5752 42.3257 22.2888 42.5251 22.027 42.7431C20.9434 43.5959 19.9969 44.9274 19.1778 46.4112C19.1485 46.4669 19.1192 46.5239 19.0918 46.5803C18.388 48.018 18.406 49.5676 18.4258 50.7337C18.4447 51.0734 18.4617 51.3815 18.4863 51.6531C18.5382 52.2387 18.6166 52.6545 18.7697 52.8565C18.7574 52.8756 18.7461 52.8946 18.7347 52.9129C18.6771 53.0044 18.6289 53.09 18.577 53.1647C18.4107 52.9573 18.2457 52.7489 18.0819 52.5396C17.2591 51.4613 16.4901 50.334 15.7768 49.1687C15.0806 47.9975 14.4439 46.786 13.8874 45.5423C13.8695 45.5021 13.8525 45.4618 13.8355 45.4216L13.8931 45.3535C13.9602 45.2803 14.0291 45.1829 14.1066 45.0848C14.1781 45.1167 14.2566 45.1383 14.338 45.1485C14.7945 45.2026 15.2594 45.1972 15.7135 45.1324C16.1896 45.0735 16.6536 44.9665 17.0938 44.814C18.542 44.3543 19.9506 43.3244 21.2835 41.8933C21.3289 41.8464 21.378 41.7996 21.4177 41.7513C22.6685 40.3451 22.7658 38.5187 22.8555 37.1997C22.8659 36.7136 22.8744 36.2935 22.8716 35.9472C22.8716 35.4795 22.8423 35.1486 22.7658 34.9744C22.7504 34.9221 22.7103 34.8761 22.6534 34.8455C22.4295 34.7336 21.6992 34.806 20.8348 35.1179C20.4867 35.244 20.1538 35.3939 19.84 35.5658C18.5552 36.2298 17.278 37.3834 16.0858 38.7069C16.0423 38.7574 15.9988 38.8079 15.9573 38.8591C14.8898 40.1555 14.5005 41.6759 14.2133 42.8207C14.1425 43.156 14.0783 43.4605 14.031 43.7299C13.928 44.3111 13.895 44.7313 13.9961 44.9538L13.9469 45.0036C13.8723 45.0768 13.8062 45.15 13.741 45.2122C12.696 42.7953 11.968 40.3029 11.5682 37.7728C11.5052 37.3531 11.4498 36.933 11.4019 36.5123L11.6315 36.3293C11.708 36.2708 11.7921 36.1924 11.8837 36.1134C11.9419 36.1517 12.0084 36.1817 12.0802 36.202C12.4826 36.311 12.9056 36.3674 13.3319 36.3689C13.777 36.3779 14.2216 36.3417 14.6545 36.2612C16.0716 36.0351 17.5756 35.2862 19.0947 34.1633C19.1466 34.1274 19.1976 34.0901 19.2477 34.0521C20.6912 32.9409 21.1815 31.2961 21.5518 30.1109C21.668 29.6717 21.7691 29.2911 21.8409 28.9763C21.9411 28.5518 21.9902 28.248 21.959 28.0796C21.9568 28.0301 21.9305 27.983 21.8853 27.9479C21.7068 27.8168 21.0285 27.7861 20.1754 27.9552C19.8335 28.024 19.5 28.1159 19.1787 28.2297C17.8665 28.663 16.4542 29.5422 15.0815 30.5853C15.0315 30.6248 14.9814 30.6658 14.9323 30.7068C13.6786 31.7433 12.9909 33.0704 12.476 34.074C12.3372 34.3668 12.2134 34.6369 12.1104 34.8756C11.8894 35.388 11.7675 35.7664 11.811 35.9816L11.7552 36.0204C11.6551 36.09 11.5663 36.1558 11.4803 36.2085L11.3707 36.2817C11.1499 34.1207 11.1382 31.9498 11.3358 29.7874C11.3987 29.0554 11.4894 28.3292 11.6078 27.6089L11.8487 27.4977C11.9432 27.4582 12.0434 27.4018 12.1539 27.3462C12.1962 27.3933 12.249 27.4341 12.3098 27.4669C12.6482 27.6473 13.0235 27.7821 13.4198 27.8659C13.8311 27.961 14.2567 28.0139 14.6857 28.0233C16.0773 28.0877 17.7211 27.6836 19.5037 26.934C19.5632 26.9106 19.6227 26.8857 19.6823 26.8608C21.3827 26.1076 22.3756 24.6707 23.1049 23.64C23.3553 23.2535 23.5716 22.919 23.7417 22.6401C23.9722 22.2646 24.1196 21.9908 24.1422 21.8283C24.1561 21.7817 24.1466 21.7328 24.1158 21.6914C23.992 21.534 23.3704 21.3737 22.5211 21.3657C22.179 21.3627 21.8372 21.3835 21.4999 21.4279C20.1386 21.5743 18.5392 22.1196 16.9228 22.8238C16.8623 22.8509 16.8028 22.8795 16.7433 22.9073C15.2412 23.629 14.1708 24.7314 13.3697 25.5637C13.1449 25.8126 12.9427 26.0373 12.7698 26.2394C12.3976 26.6749 12.1614 27.0021 12.1322 27.2107L12.0679 27.2364C11.9517 27.2817 11.8478 27.3257 11.7505 27.3579L11.64 27.3974C11.9316 25.6259 12.3676 23.8704 12.9455 22.1416C13.2365 21.2734 13.558 20.4241 13.9101 19.5935L14.0225 19.5532C14.117 19.521 14.2275 19.4727 14.3456 19.4266C14.3813 19.4767 14.4283 19.5213 14.4845 19.5584C14.7971 19.765 15.1526 19.9291 15.5359 20.0437C15.9324 20.1712 16.3488 20.2576 16.7745 20.3006C18.1499 20.4756 19.8391 20.204 21.7115 19.6001C21.7738 19.5818 21.8362 19.5613 21.9004 19.5408C23.6954 18.9266 24.8687 17.5761 25.7312 16.6076C26.0316 16.2416 26.2914 15.9276 26.4974 15.6641C26.7761 15.3083 26.9556 15.0477 27.0028 14.8882C27.0228 14.8429 27.0197 14.7934 26.9943 14.7498C26.8923 14.5837 26.2952 14.375 25.4516 14.2989C25.1117 14.269 24.7689 14.2626 24.4275 14.2799C23.0539 14.3187 21.3903 14.733 19.6889 15.3047C19.6256 15.3266 19.5623 15.3501 19.4999 15.3735C17.91 15.9715 16.6989 16.9839 15.7929 17.7474C15.5369 17.9772 15.3054 18.1866 15.1061 18.3718C14.6791 18.7758 14.4013 19.0818 14.3437 19.2875L14.2757 19.3073C14.1746 19.338 14.0868 19.3666 13.9923 19.3893C14.5909 17.9956 15.2814 16.6266 16.0612 15.2878C16.8453 13.9358 17.6908 12.6629 18.5647 11.4741L18.8358 11.4316C18.9303 11.4199 19.0323 11.3958 19.1447 11.3753C19.1614 11.4239 19.1892 11.4698 19.2269 11.5107C19.4401 11.736 19.7003 11.9322 19.9969 12.0912C20.301 12.2631 20.6333 12.4029 20.985 12.507C22.1121 12.873 23.6245 12.9118 25.3817 12.6936C25.4393 12.6878 25.4979 12.6812 25.5565 12.6731C27.2503 12.4338 28.6088 11.469 29.6008 10.7802C29.9531 10.5166 30.2621 10.289 30.5039 10.0957C30.8364 9.83733 31.0584 9.64408 31.1406 9.51525C31.1698 9.47959 31.1806 9.43674 31.1709 9.3952C31.1274 9.23782 30.6721 8.96478 29.973 8.76641C29.6912 8.68629 29.4006 8.62626 29.1048 8.58707C27.923 8.40187 26.3944 8.49044 24.7912 8.70858L24.6118 8.73713C23.1002 8.99479 21.7965 9.66604 20.8216 10.1741C20.5382 10.3285 20.2897 10.4669 20.0705 10.5972C19.5982 10.8739 19.2808 11.0913 19.1778 11.256L19.1145 11.2625C19.0011 11.2743 18.8991 11.2874 18.8065 11.2918L18.6922 11.2999C19.1391 10.6982 19.5925 10.1155 20.0488 9.55844C20.9132 8.50435 21.7852 7.53518 22.6411 6.64725C22.848 6.72046 23.3175 6.66043 23.9637 6.50085C24.2238 6.4379 24.5104 6.36006 24.8234 6.26734C25.8852 5.93355 27.2088 5.42188 28.1894 4.53688C28.2271 4.50102 28.2659 4.46368 28.3037 4.43074C29.2833 3.4645 30.1355 2.50996 30.6144 1.69671C30.7384 1.49818 30.8436 1.29292 30.929 1.08255C31.1378 0.57015 31.1463 0.174136 31.0055 0.0628711C30.9657 0.0331127 30.9134 0.0154452 30.8582 0.0130948C30.6692 -0.0132574 30.3159 0.000650672 29.8398 0.050427C29.4855 0.0848312 29.0642 0.140464 28.589 0.212932C27.3079 0.442782 25.6301 0.821228 24.5872 1.83945C24.5513 1.87458 24.5163 1.91265 24.4823 1.94559C23.4299 3.01797 22.7204 4.02961 22.4786 4.91826C22.3941 5.18707 22.3525 5.4629 22.3548 5.73957C22.3473 5.99883 22.3992 6.25706 22.5079 6.50232C22.5189 6.52396 22.5319 6.54499 22.5466 6.56527C21.6709 7.45173 20.7772 8.42163 19.891 9.47719C19.396 10.0664 18.9038 10.6835 18.4192 11.3233C18.4192 11.3138 18.4126 11.3043 18.4079 11.2933C18.3805 11.2252 18.3587 11.1469 18.3313 11.0605C18.3313 11.0451 18.3219 11.029 18.3172 11.0129C18.4787 10.8782 18.6251 10.5701 18.7895 10.1287C18.8651 9.92444 18.9416 9.68947 19.0266 9.43327C19.2836 8.54461 19.618 7.36169 19.3781 6.17511C19.3686 6.12826 19.3592 6.08142 19.3478 6.03457C19.0285 4.79821 18.5807 3.66214 17.9308 2.87597C17.7759 2.67687 17.5982 2.48896 17.3998 2.31452C16.9077 1.88117 16.4136 1.65571 16.2086 1.67767C16.1556 1.68602 16.1085 1.70922 16.0763 1.74282C15.9516 1.84969 15.7986 2.07954 15.604 2.41334C15.4613 2.66076 15.2979 2.96454 15.1099 3.31444C14.6375 4.27995 13.9762 5.61147 14.3012 6.92102C14.3125 6.96568 14.3248 7.01033 14.339 7.05498C14.7169 8.40333 15.3073 9.48158 16.1594 10.1616C16.4124 10.3777 16.7012 10.567 17.0182 10.7245C17.3171 10.8808 17.6475 10.9973 17.996 11.0693C18.0577 11.0814 18.1216 11.0849 18.1849 11.0795C18.2 11.1681 18.2114 11.2545 18.2284 11.3233C18.2473 11.4068 18.2624 11.4734 18.2718 11.5136C17.4121 12.6629 16.578 13.8904 15.7995 15.1934C14.9646 16.5911 14.2264 18.0222 13.588 19.4808C13.5854 19.477 13.5831 19.4731 13.5813 19.4691C13.5388 19.3959 13.502 19.3073 13.4566 19.2129C13.4491 19.1953 13.4406 19.1784 13.4321 19.1609C13.5946 18.9925 13.7089 18.6287 13.8194 18.1126C13.8714 17.8733 13.9205 17.6002 13.9753 17.3009C14.1217 16.2695 14.3078 14.8977 13.843 13.5757C13.8251 13.5244 13.8052 13.4717 13.7854 13.4205C13.2186 12.0516 12.5299 10.808 11.6636 9.98007C11.4559 9.76919 11.2241 9.5732 10.9711 9.39447C10.3419 8.95527 9.74299 8.74152 9.51815 8.7913C9.45871 8.80509 9.40834 8.836 9.37739 8.87767C9.25363 9.00943 9.11854 9.28613 8.95699 9.68288C8.83607 9.97568 8.70003 10.3358 8.54321 10.7509C8.16533 11.8913 7.63062 13.4651 8.21445 14.916C8.23523 14.9658 8.25696 15.0155 8.27964 15.0624C8.92487 16.552 9.77322 17.7159 10.8483 18.4033C11.1702 18.6255 11.5289 18.8136 11.9149 18.9625C12.2786 19.11 12.6717 19.209 13.0778 19.2553C13.1507 19.2634 13.2249 19.2615 13.297 19.2495C13.33 19.349 13.3556 19.4449 13.3867 19.5218C13.4274 19.6286 13.4585 19.7106 13.4736 19.7516C13.1515 20.5034 12.8492 21.2698 12.5752 22.053C11.9614 23.8093 11.4932 25.5941 11.1733 27.3967C11.1213 27.3462 11.0694 27.2913 11.0108 27.232L10.9673 27.1873C11.0618 26.9897 11.0316 26.6156 10.9437 26.0981C10.9021 25.8573 10.8492 25.5857 10.7859 25.287C10.5365 24.2717 10.1983 22.9153 9.2593 21.7588C9.22245 21.7126 9.18372 21.6673 9.14593 21.6226C8.08692 20.4404 6.95704 19.4083 5.81584 18.8161C5.5376 18.662 5.24233 18.5273 4.93348 18.4135C4.16543 18.1331 3.51642 18.0658 3.31614 18.1654C3.26473 18.1909 3.22789 18.2307 3.21317 18.2766C3.14326 18.4318 3.11869 18.7261 3.11303 19.1418C3.1083 19.45 3.11303 19.8248 3.12058 20.2574C3.19333 21.4323 3.26985 23.0595 4.3761 24.3157C4.41483 24.3581 4.45451 24.4006 4.49513 24.4423C5.67319 25.7211 6.92209 26.6427 8.20973 27.0563C8.60076 27.1942 9.01376 27.2912 9.43785 27.3447C9.843 27.404 10.2581 27.4104 10.666 27.3637C10.7387 27.3547 10.8088 27.3356 10.8729 27.3074C10.9418 27.3945 11.0023 27.4808 11.0618 27.5467C11.0892 27.5782 11.1128 27.6068 11.1345 27.6331C11.0155 28.3329 10.9182 29.0388 10.8426 29.7508C10.6139 31.9015 10.5899 34.0624 10.7708 36.2159L10.6669 36.1427L10.6112 36.1039C10.6546 35.8887 10.5318 35.5117 10.3108 34.9978C10.2087 34.7592 10.084 34.492 9.9461 34.1963C9.43407 33.1949 8.74632 31.8678 7.48986 30.829C7.44073 30.7888 7.39539 30.7485 7.3406 30.709C5.96699 29.6651 4.55465 28.786 3.2434 28.3527C2.9209 28.2383 2.58615 28.146 2.24295 28.0767C1.39271 27.9076 0.711577 27.9383 0.533028 28.0694C0.48751 28.1044 0.460837 28.1515 0.458396 28.2011C0.428165 28.3695 0.476345 28.6733 0.576484 29.0978C0.654895 29.4141 0.756923 29.7962 0.871233 30.2354C1.2425 31.4205 1.73281 33.0653 3.17538 34.1765C3.22639 34.2138 3.27741 34.2497 3.32842 34.2878C4.85223 35.4107 6.35715 36.1595 7.76855 36.3857C8.20148 36.4661 8.64611 36.5022 9.09114 36.4933C9.51725 36.4921 9.94006 36.4354 10.3419 36.3257C10.4139 36.3057 10.4808 36.2759 10.5394 36.2378C10.6338 36.3154 10.7123 36.393 10.7888 36.4508C10.8316 36.9105 10.8842 37.3697 10.9465 37.8285C11.3097 40.3706 11.999 42.8784 13.0041 45.3147L12.9342 45.2817C12.9219 45.046 12.6895 44.6661 12.3154 44.1559C12.1416 43.9187 11.9375 43.6552 11.7089 43.3639C10.8936 42.3837 9.80251 41.0852 8.18989 40.1884C8.12659 40.1533 8.06235 40.1152 8.00095 40.0845C6.2589 39.2002 4.5197 38.4961 3.00911 38.2501C2.63688 38.181 2.25754 38.1374 1.87546 38.1198C0.923192 38.0795 0.209937 38.223 0.0559499 38.3914C0.0144062 38.4339 -0.00513669 38.4869 0.0011568 38.54C0.013438 38.723 0.148531 39.0377 0.369593 39.4725C0.533028 39.7946 0.747476 40.1826 0.985543 40.6313C1.70163 41.8296 2.66901 43.4971 4.50458 44.4421C4.56788 44.4743 4.63212 44.5051 4.69352 44.5358C6.61789 45.4801 8.4204 46.0306 9.98389 46.0394C10.4653 46.0546 10.9472 46.0204 11.417 45.9376C11.8696 45.8665 12.3037 45.7376 12.7018 45.5562C12.7723 45.523 12.8346 45.4804 12.886 45.4303C12.9607 45.4728 13.0306 45.516 13.0967 45.554C13.1213 45.6119 13.1449 45.6704 13.1694 45.7283C13.7193 46.9954 14.3466 48.231 15.0362 49.4285C15.7419 50.6203 16.5071 51.771 17.3281 52.8785C17.4905 53.0942 17.6549 53.3077 17.8212 53.519L17.7588 53.5022L17.6833 53.4802C17.6115 53.2511 17.2884 52.9129 16.7933 52.4693C16.5638 52.2629 16.2964 52.0345 16.0007 51.7834C14.9549 50.9445 13.5587 49.8348 11.7495 49.198C11.6787 49.1723 11.6069 49.1482 11.5351 49.1248C9.60506 48.5187 7.72226 48.0897 6.1786 48.0758C5.79476 48.0636 5.41027 48.0783 5.02984 48.1197C4.08513 48.2229 3.42384 48.4704 3.3133 48.6585C3.28778 48.7086 3.28778 48.7643 3.3133 48.8144C3.37188 48.9923 3.58255 49.2814 3.90847 49.6738C4.14937 49.9666 4.45262 50.315 4.80311 50.7176C5.80544 51.7863 7.17149 53.2796 9.20923 53.9274C9.28008 53.9494 9.35093 53.9699 9.42179 53.9904C11.5455 54.6272 13.451 54.8966 14.989 54.6697C15.4651 54.6118 15.9294 54.506 16.3701 54.3549C16.7959 54.2167 17.1892 54.0248 17.534 53.7869C17.5955 53.7439 17.6464 53.6925 17.6842 53.6354C17.8004 53.6778 17.909 53.7225 18.0073 53.7554C19.4363 55.5519 21.0424 57.2601 22.8111 58.8648C23.4838 59.4719 24.1636 60.0529 24.8508 60.6077L24.6495 60.5924L24.5683 60.5858C24.4266 60.3771 24.0071 60.11 23.3874 59.7732C23.104 59.6166 22.7696 59.446 22.404 59.2608C21.1371 58.6445 19.4338 57.832 17.4783 57.5538L17.2468 57.5231C15.1845 57.3035 13.2242 57.239 11.7212 57.5165C11.3452 57.5776 10.977 57.6643 10.6206 57.7756C9.74204 58.0516 9.17616 58.4176 9.12893 58.6225C9.11894 58.6758 9.13549 58.7299 9.17522 58.7741C9.28764 58.9358 9.58333 59.1759 10.0255 59.4951C10.3514 59.733 10.7548 60.0141 11.2215 60.3391C12.5299 61.186 14.3229 62.3741 16.5033 62.6215C16.5789 62.6295 16.6535 62.6354 16.7291 62.6412C18.9888 62.8608 20.9217 62.7606 22.3426 62.2511C22.7863 62.1055 23.2034 61.9152 23.583 61.6852C23.9528 61.4707 24.2743 61.2103 24.5343 60.9144C24.5791 60.861 24.6111 60.8017 24.6288 60.7395C24.7742 60.7622 24.9122 60.7885 25.0274 60.801L25.1087 60.8112C26.3453 61.8002 27.5904 62.7064 28.8157 63.5299C30.2507 64.4932 31.6489 65.3489 32.9809 66.1036L32.9479 66.108C32.8307 66.1241 32.6985 66.1329 32.5539 66.1461L32.4727 66.1534C32.2771 65.9726 31.7953 65.7801 31.0972 65.5524C30.7741 65.4463 30.4038 65.3328 29.9947 65.2091C28.5776 64.816 26.6882 64.3 24.7043 64.349C24.6259 64.349 24.5475 64.3534 24.47 64.3578C22.3917 64.4764 20.4598 64.7384 19.0673 65.2552C18.7168 65.3769 18.3808 65.5222 18.063 65.6893C17.2751 66.1058 16.8217 66.556 16.8349 66.7617C16.8403 66.8154 16.8708 66.8656 16.9209 66.903C17.0749 67.0428 17.4291 67.2287 17.9459 67.4688C18.3238 67.6481 18.7961 67.8568 19.345 68.0983C20.8565 68.7118 22.9349 69.5792 25.1304 69.4628C25.206 69.4584 25.2816 69.4525 25.3562 69.4467C27.6235 69.2886 29.4874 68.875 30.741 68.1444C31.135 67.9291 31.4907 67.6747 31.7991 67.3876C32.1023 67.1178 32.3452 66.8108 32.518 66.4791C32.5481 66.4196 32.5641 66.3564 32.5653 66.2925C32.7136 66.2925 32.8562 66.2925 32.9724 66.2874L33.287 66.2756C33.698 66.5048 34.1042 66.7251 34.501 66.9344C35.3701 67.4183 36.2298 67.8129 37.0007 68.2125L39.1782 69.23L40.9732 70.0089C41.4956 70.2351 41.9434 70.4034 42.3042 70.5527L43.4143 71L44 70.1143L42.8834 69.6751C42.5215 69.5301 42.0624 69.3618 41.5494 69.1458Z" fill="white"/>
</svg>
