<svg width="44" height="71" viewBox="0 0 44 71" fill="none" xmlns="http://www.w3.org/2000/svg">
<path opacity="0.4" d="M2.45057 69.1458L4.2134 68.4014L6.36922 67.4212C7.13255 67.0377 7.98562 66.6541 8.84625 66.1871C9.30474 65.9514 9.77364 65.7022 10.2529 65.4397C10.2482 65.3906 10.2425 65.3284 10.2359 65.2552C10.2246 65.1652 10.2265 65.0554 10.2208 64.9405C10.138 64.9401 10.0558 64.9288 9.97801 64.9068C9.54618 64.7804 9.14477 64.5988 8.79051 64.3695C8.41334 64.1361 8.07731 63.8654 7.79101 63.5643C6.82079 62.6127 6.24736 61.1787 5.99606 59.4255C5.98662 59.367 5.97717 59.3092 5.96961 59.2506C5.77311 57.5494 6.84725 55.9214 7.6049 54.7392C7.90438 54.3118 8.16322 53.9421 8.38618 53.6412C8.68565 53.2364 8.91805 52.9575 9.09471 52.836C9.14107 52.7951 9.20537 52.7691 9.27515 52.7628C9.54061 52.7504 10.1311 53.0922 10.6856 53.6925C10.9078 53.9361 11.1016 54.1945 11.2647 54.4647C11.9628 55.532 12.3426 57.0268 12.5419 58.6298C12.5476 58.6906 12.5533 58.7506 12.5571 58.8114C12.6638 60.3486 12.0384 61.8199 11.5623 62.9253C11.4111 63.2451 11.2789 63.5343 11.1438 63.7868C10.8604 64.3329 10.627 64.7106 10.3984 64.8658C10.3984 64.887 10.406 64.9075 10.4088 64.928C10.4296 65.04 10.4428 65.1425 10.4674 65.2325C10.474 65.2603 10.4796 65.286 10.4853 65.3109C11.7663 64.6015 13.1069 63.7985 14.4805 62.8952C15.7757 62.0454 17.0945 61.104 18.401 60.0704C18.3903 60.0324 18.378 59.9892 18.3642 59.9409C18.3368 59.853 18.3179 59.744 18.2914 59.6312C18.2097 59.6407 18.1265 59.6385 18.0458 59.6246C17.5948 59.5477 17.1637 59.4126 16.7705 59.225C16.3558 59.0365 15.9747 58.8069 15.6368 58.542C14.5032 57.7083 13.668 56.3526 13.0927 54.6455C13.0729 54.5892 13.053 54.5321 13.0341 54.475C12.524 52.8141 13.2854 51.0829 13.8173 49.829C14.0346 49.3729 14.2216 48.9776 14.3841 48.6577C14.6042 48.2237 14.7837 47.9257 14.9358 47.7793C14.9747 47.7349 15.0337 47.7033 15.1012 47.6908C15.3619 47.649 16.009 47.9213 16.6694 48.4543C16.9345 48.6696 17.1748 48.9025 17.3874 49.1504C18.2754 50.1291 18.9272 51.566 19.4223 53.131C19.4393 53.1903 19.4563 53.2496 19.4714 53.3082C19.8606 54.8168 19.5158 56.3438 19.2484 57.4901C19.154 57.8239 19.0756 58.1255 18.9943 58.3898C18.8186 58.9607 18.6542 59.3611 18.4558 59.5405L18.4785 59.6012C18.5201 59.7088 18.5522 59.8084 18.5928 59.894C18.5928 59.9013 18.5985 59.9087 18.6023 59.916C19.2201 59.4226 19.8335 58.908 20.4425 58.3722C22.2188 56.7982 23.8347 55.1198 25.2757 53.3521L25.2313 53.2664C25.185 53.183 25.1434 53.0783 25.0933 52.9736C25.0146 52.993 24.9321 53.0015 24.8496 52.9985C24.3853 52.979 23.9285 52.8988 23.4987 52.7614C23.0483 52.6286 22.6224 52.4507 22.2318 52.2321C20.9338 51.5536 19.8256 50.3223 18.897 48.7112C18.8649 48.6585 18.8328 48.605 18.8025 48.5509C17.9523 46.9763 18.3302 45.1734 18.5919 43.866C18.7099 43.3888 18.811 42.9759 18.9055 42.637C19.0311 42.1802 19.1445 41.8596 19.2645 41.7022C19.2933 41.6531 19.3449 41.6142 19.409 41.5932C19.6575 41.52 20.3537 41.7059 21.1171 42.1473C21.4248 42.3257 21.7112 42.5251 21.973 42.7431C23.0566 43.5959 24.0031 44.9274 24.8222 46.4112C24.8515 46.4669 24.8808 46.5239 24.9082 46.5803C25.612 48.018 25.594 49.5676 25.5742 50.7337C25.5553 51.0734 25.5383 51.3815 25.5137 51.6531C25.4618 52.2387 25.3834 52.6545 25.2303 52.8565C25.2426 52.8756 25.2539 52.8946 25.2653 52.9129C25.3229 53.0044 25.3711 53.09 25.423 53.1647C25.5893 52.9573 25.7543 52.7489 25.9181 52.5396C26.7409 51.4613 27.5099 50.334 28.2232 49.1687C28.9194 47.9975 29.5561 46.786 30.1126 45.5423C30.1305 45.5021 30.1475 45.4618 30.1645 45.4216L30.1069 45.3535C30.0398 45.2803 29.9709 45.1829 29.8934 45.0848C29.8219 45.1167 29.7434 45.1383 29.662 45.1485C29.2055 45.2026 28.7406 45.1972 28.2865 45.1324C27.8104 45.0735 27.3464 44.9665 26.9062 44.814C25.458 44.3543 24.0494 43.3244 22.7165 41.8933C22.6711 41.8464 22.622 41.7996 22.5823 41.7513C21.3315 40.3451 21.2342 38.5187 21.1445 37.1997C21.1341 36.7136 21.1256 36.2935 21.1284 35.9472C21.1284 35.4795 21.1577 35.1486 21.2342 34.9744C21.2496 34.9221 21.2897 34.8761 21.3466 34.8455C21.5705 34.7336 22.3008 34.806 23.1652 35.1179C23.5133 35.244 23.8462 35.3939 24.16 35.5658C25.4448 36.2298 26.722 37.3834 27.9142 38.7069C27.9577 38.7574 28.0012 38.8079 28.0427 38.8591C29.1102 40.1555 29.4995 41.6759 29.7867 42.8207C29.8575 43.156 29.9217 43.4605 29.969 43.7299C30.072 44.3111 30.105 44.7313 30.0039 44.9538L30.0531 45.0036C30.1277 45.0768 30.1938 45.15 30.259 45.2122C31.304 42.7953 32.032 40.3029 32.4318 37.7728C32.4948 37.3531 32.5502 36.933 32.5981 36.5123L32.3685 36.3293C32.292 36.2708 32.2079 36.1924 32.1163 36.1134C32.0581 36.1517 31.9916 36.1817 31.9198 36.202C31.5174 36.311 31.0944 36.3674 30.6681 36.3689C30.223 36.3779 29.7784 36.3417 29.3455 36.2612C27.9284 36.0351 26.4244 35.2862 24.9053 34.1633C24.8534 34.1274 24.8024 34.0901 24.7523 34.0521C23.3088 32.9409 22.8185 31.2961 22.4482 30.1109C22.332 29.6717 22.2309 29.2911 22.1591 28.9763C22.0589 28.5518 22.0098 28.248 22.041 28.0796C22.0432 28.0301 22.0695 27.983 22.1147 27.9479C22.2932 27.8168 22.9715 27.7861 23.8246 27.9552C24.1665 28.024 24.5 28.1159 24.8213 28.2297C26.1335 28.663 27.5458 29.5422 28.9185 30.5853C28.9685 30.6248 29.0186 30.6658 29.0677 30.7068C30.3214 31.7433 31.0091 33.0704 31.524 34.074C31.6628 34.3668 31.7866 34.6369 31.8896 34.8756C32.1106 35.388 32.2325 35.7664 32.189 35.9816L32.2448 36.0204C32.3449 36.09 32.4337 36.1558 32.5197 36.2085L32.6293 36.2817C32.8501 34.1207 32.8618 31.9498 32.6642 29.7874C32.6013 29.0554 32.5106 28.3292 32.3922 27.6089L32.1513 27.4977C32.0568 27.4582 31.9566 27.4018 31.8461 27.3462C31.8038 27.3933 31.751 27.4341 31.6902 27.4669C31.3518 27.6473 30.9765 27.7821 30.5802 27.8659C30.1689 27.961 29.7433 28.0139 29.3143 28.0233C27.9227 28.0877 26.2789 27.6836 24.4963 26.934C24.4368 26.9106 24.3773 26.8857 24.3177 26.8608C22.6173 26.1076 21.6244 24.6707 20.8951 23.64C20.6447 23.2535 20.4284 22.919 20.2583 22.6401C20.0278 22.2646 19.8804 21.9908 19.8578 21.8283C19.8439 21.7817 19.8534 21.7328 19.8842 21.6914C20.008 21.534 20.6296 21.3737 21.4789 21.3657C21.821 21.3627 22.1628 21.3835 22.5001 21.4279C23.8614 21.5743 25.4608 22.1196 27.0772 22.8238C27.1377 22.8509 27.1972 22.8795 27.2567 22.9073C28.7588 23.629 29.8292 24.7314 30.6303 25.5637C30.8551 25.8126 31.0573 26.0373 31.2302 26.2394C31.6024 26.6749 31.8386 27.0021 31.8678 27.2107L31.9321 27.2364C32.0483 27.2817 32.1522 27.3257 32.2495 27.3579L32.36 27.3974C32.0684 25.6259 31.6324 23.8704 31.0545 22.1416C30.7635 21.2734 30.442 20.4241 30.0899 19.5935L29.9775 19.5532C29.883 19.521 29.7725 19.4727 29.6544 19.4266C29.6187 19.4767 29.5717 19.5213 29.5155 19.5584C29.2029 19.765 28.8474 19.9291 28.4641 20.0437C28.0676 20.1712 27.6512 20.2576 27.2255 20.3006C25.8501 20.4756 24.1609 20.204 22.2885 19.6001C22.2262 19.5818 22.1638 19.5613 22.0996 19.5408C20.3046 18.9266 19.1313 17.5761 18.2688 16.6076C17.9684 16.2416 17.7086 15.9276 17.5026 15.6641C17.2239 15.3083 17.0444 15.0477 16.9972 14.8882C16.9772 14.8429 16.9803 14.7934 17.0057 14.7498C17.1077 14.5837 17.7048 14.375 18.5484 14.2989C18.8883 14.269 19.2311 14.2626 19.5725 14.2799C20.9461 14.3187 22.6097 14.733 24.3111 15.3047C24.3744 15.3266 24.4377 15.3501 24.5001 15.3735C26.09 15.9715 27.3011 16.9839 28.2071 17.7474C28.4631 17.9772 28.6946 18.1866 28.8939 18.3718C29.3209 18.7758 29.5987 19.0818 29.6563 19.2875L29.7243 19.3073C29.8254 19.338 29.9132 19.3666 30.0077 19.3893C29.4091 17.9956 28.7186 16.6266 27.9388 15.2878C27.1547 13.9358 26.3092 12.6629 25.4353 11.4741L25.1642 11.4316C25.0697 11.4199 24.9677 11.3958 24.8553 11.3753C24.8386 11.4239 24.8108 11.4698 24.7731 11.5107C24.5599 11.736 24.2997 11.9322 24.0031 12.0912C23.699 12.2631 23.3667 12.4029 23.015 12.507C21.8879 12.873 20.3755 12.9118 18.6183 12.6936C18.5607 12.6878 18.5021 12.6812 18.4435 12.6731C16.7497 12.4338 15.3912 11.469 14.3992 10.7802C14.0469 10.5166 13.7379 10.289 13.4961 10.0957C13.1636 9.83733 12.9416 9.64408 12.8594 9.51525C12.8302 9.47959 12.8194 9.43674 12.8291 9.3952C12.8726 9.23782 13.3279 8.96478 14.027 8.76641C14.3088 8.68629 14.5994 8.62626 14.8952 8.58707C16.077 8.40187 17.6056 8.49044 19.2088 8.70858L19.3882 8.73713C20.8998 8.99479 22.2035 9.66604 23.1784 10.1741C23.4618 10.3285 23.7103 10.4669 23.9295 10.5972C24.4018 10.8739 24.7192 11.0913 24.8222 11.256L24.8855 11.2625C24.9989 11.2743 25.1009 11.2874 25.1935 11.2918L25.3078 11.2999C24.8609 10.6982 24.4075 10.1155 23.9512 9.55844C23.0868 8.50435 22.2148 7.53518 21.3589 6.64725C21.152 6.72046 20.6825 6.66043 20.0363 6.50085C19.7762 6.4379 19.4896 6.36006 19.1766 6.26734C18.1148 5.93355 16.7912 5.42188 15.8106 4.53688C15.7729 4.50102 15.7341 4.46368 15.6963 4.43074C14.7167 3.4645 13.8645 2.50996 13.3856 1.69671C13.2616 1.49818 13.1564 1.29292 13.071 1.08255C12.8622 0.57015 12.8537 0.174136 12.9945 0.0628711C13.0343 0.0331127 13.0866 0.0154452 13.1418 0.0130948C13.3308 -0.0132574 13.6841 0.000650672 14.1602 0.050427C14.5145 0.0848312 14.9358 0.140464 15.411 0.212932C16.6921 0.442782 18.3699 0.821228 19.4128 1.83945C19.4487 1.87458 19.4837 1.91265 19.5177 1.94559C20.5701 3.01797 21.2796 4.02961 21.5214 4.91826C21.6059 5.18707 21.6475 5.4629 21.6452 5.73957C21.6527 5.99883 21.6008 6.25706 21.4921 6.50232C21.4811 6.52396 21.4681 6.54499 21.4534 6.56527C22.3291 7.45173 23.2228 8.42163 24.109 9.47719C24.604 10.0664 25.0962 10.6835 25.5808 11.3233C25.5808 11.3138 25.5874 11.3043 25.5921 11.2933C25.6195 11.2252 25.6413 11.1469 25.6687 11.0605C25.6687 11.0451 25.6781 11.029 25.6828 11.0129C25.5213 10.8782 25.3749 10.5701 25.2105 10.1287C25.1349 9.92444 25.0584 9.68947 24.9734 9.43327C24.7164 8.54461 24.382 7.36169 24.6219 6.17511C24.6314 6.12826 24.6408 6.08142 24.6522 6.03457C24.9715 4.79821 25.4193 3.66214 26.0692 2.87597C26.2241 2.67687 26.4018 2.48896 26.6002 2.31452C27.0923 1.88117 27.5864 1.65571 27.7914 1.67767C27.8444 1.68602 27.8915 1.70922 27.9237 1.74282C28.0484 1.84969 28.2014 2.07954 28.396 2.41334C28.5387 2.66076 28.7021 2.96454 28.8901 3.31444C29.3625 4.27995 30.0238 5.61147 29.6988 6.92102C29.6875 6.96568 29.6752 7.01033 29.661 7.05498C29.2831 8.40333 28.6927 9.48158 27.8406 10.1616C27.5876 10.3777 27.2988 10.567 26.9818 10.7245C26.6829 10.8808 26.3525 10.9973 26.004 11.0693C25.9423 11.0814 25.8784 11.0849 25.8151 11.0795C25.8 11.1681 25.7886 11.2545 25.7716 11.3233C25.7527 11.4068 25.7376 11.4734 25.7282 11.5136C26.5879 12.6629 27.422 13.8904 28.2005 15.1934C29.0354 16.5911 29.7736 18.0222 30.412 19.4808C30.4146 19.477 30.4169 19.4731 30.4187 19.4691C30.4612 19.3959 30.498 19.3073 30.5434 19.2129C30.5509 19.1953 30.5594 19.1784 30.5679 19.1609C30.4054 18.9925 30.2911 18.6287 30.1806 18.1126C30.1286 17.8733 30.0795 17.6002 30.0247 17.3009C29.8783 16.2695 29.6922 14.8977 30.157 13.5757C30.1749 13.5244 30.1948 13.4717 30.2146 13.4205C30.7814 12.0516 31.4701 10.808 32.3364 9.98007C32.5441 9.76919 32.7759 9.5732 33.0289 9.39447C33.6581 8.95527 34.257 8.74152 34.4819 8.7913C34.5413 8.80509 34.5917 8.836 34.6226 8.87767C34.7464 9.00943 34.8815 9.28613 35.043 9.68288C35.1639 9.97568 35.3 10.3358 35.4568 10.7509C35.8347 11.8913 36.3694 13.4651 35.7855 14.916C35.7648 14.9658 35.743 15.0155 35.7204 15.0624C35.0751 16.552 34.2268 17.7159 33.1517 18.4033C32.8298 18.6255 32.4711 18.8136 32.0851 18.9625C31.7214 19.11 31.3283 19.209 30.9222 19.2553C30.8493 19.2634 30.7751 19.2615 30.703 19.2495C30.67 19.349 30.6444 19.4449 30.6133 19.5218C30.5726 19.6286 30.5415 19.7106 30.5264 19.7516C30.8485 20.5034 31.1508 21.2698 31.4248 22.053C32.0386 23.8093 32.5068 25.5941 32.8267 27.3967C32.8787 27.3462 32.9306 27.2913 32.9892 27.232L33.0327 27.1873C32.9382 26.9897 32.9684 26.6156 33.0563 26.0981C33.0979 25.8573 33.1508 25.5857 33.2141 25.287C33.4635 24.2717 33.8017 22.9153 34.7407 21.7588C34.7775 21.7126 34.8163 21.6673 34.8541 21.6226C35.9131 20.4404 37.043 19.4083 38.1842 18.8161C38.4624 18.662 38.7577 18.5273 39.0665 18.4135C39.8346 18.1331 40.4836 18.0658 40.6839 18.1654C40.7353 18.1909 40.7721 18.2307 40.7868 18.2766C40.8567 18.4318 40.8813 18.7261 40.887 19.1418C40.8917 19.45 40.887 19.8248 40.8794 20.2574C40.8067 21.4323 40.7302 23.0595 39.6239 24.3157C39.5852 24.3581 39.5455 24.4006 39.5049 24.4423C38.3268 25.7211 37.0779 26.6427 35.7903 27.0563C35.3992 27.1942 34.9862 27.2912 34.5622 27.3447C34.157 27.404 33.7419 27.4104 33.334 27.3637C33.2613 27.3547 33.1912 27.3356 33.1271 27.3074C33.0582 27.3945 32.9977 27.4808 32.9382 27.5467C32.9108 27.5782 32.8872 27.6068 32.8655 27.6331C32.9845 28.3329 33.0818 29.0388 33.1574 29.7508C33.3861 31.9015 33.4101 34.0624 33.2292 36.2159L33.3331 36.1427L33.3888 36.1039C33.3454 35.8887 33.4682 35.5117 33.6892 34.9978C33.7913 34.7592 33.916 34.492 34.0539 34.1963C34.5659 33.1949 35.2537 31.8678 36.5101 30.829C36.5593 30.7888 36.6046 30.7485 36.6594 30.709C38.033 29.6651 39.4453 28.786 40.7566 28.3527C41.0791 28.2383 41.4139 28.146 41.7571 28.0767C42.6073 27.9076 43.2884 27.9383 43.467 28.0694C43.5125 28.1044 43.5392 28.1515 43.5416 28.2011C43.5718 28.3695 43.5237 28.6733 43.4235 29.0978C43.3451 29.4141 43.2431 29.7962 43.1288 30.2354C42.7575 31.4205 42.2672 33.0653 40.8246 34.1765C40.7736 34.2138 40.7226 34.2497 40.6716 34.2878C39.1478 35.4107 37.6428 36.1595 36.2315 36.3857C35.7985 36.4661 35.3539 36.5022 34.9089 36.4933C34.4828 36.4921 34.0599 36.4354 33.6581 36.3257C33.5861 36.3057 33.5192 36.2759 33.4606 36.2378C33.3662 36.3154 33.2877 36.393 33.2112 36.4508C33.1684 36.9105 33.1158 37.3697 33.0535 37.8285C32.6903 40.3706 32.001 42.8784 30.9959 45.3147L31.0658 45.2817C31.0781 45.046 31.3105 44.6661 31.6846 44.1559C31.8584 43.9187 32.0625 43.6552 32.2911 43.3639C33.1064 42.3837 34.1975 41.0852 35.8101 40.1884C35.8734 40.1533 35.9376 40.1152 35.9991 40.0845C37.7411 39.2002 39.4803 38.4961 40.9909 38.2501C41.3631 38.181 41.7425 38.1374 42.1245 38.1198C43.0768 38.0795 43.7901 38.223 43.9441 38.3914C43.9856 38.4339 44.0051 38.4869 43.9988 38.54C43.9866 38.723 43.8515 39.0377 43.6304 39.4725C43.467 39.7946 43.2525 40.1826 43.0145 40.6313C42.2984 41.8296 41.331 43.4971 39.4954 44.4421C39.4321 44.4743 39.3679 44.5051 39.3065 44.5358C37.3821 45.4801 35.5796 46.0306 34.0161 46.0394C33.5347 46.0546 33.0528 46.0204 32.583 45.9376C32.1304 45.8665 31.6963 45.7376 31.2982 45.5562C31.2277 45.523 31.1654 45.4804 31.114 45.4303C31.0393 45.4728 30.9694 45.516 30.9033 45.554C30.8787 45.6119 30.8551 45.6704 30.8306 45.7283C30.2807 46.9954 29.6534 48.231 28.9638 49.4285C28.2581 50.6203 27.4929 51.771 26.6719 52.8785C26.5095 53.0942 26.3451 53.3077 26.1788 53.519L26.2412 53.5022L26.3167 53.4802C26.3885 53.2511 26.7116 52.9129 27.2067 52.4693C27.4362 52.2629 27.7036 52.0345 27.9993 51.7834C29.0451 50.9445 30.4413 49.8348 32.2505 49.198C32.3213 49.1723 32.3931 49.1482 32.4649 49.1248C34.3949 48.5187 36.2777 48.0897 37.8214 48.0758C38.2052 48.0636 38.5897 48.0783 38.9702 48.1197C39.9149 48.2229 40.5762 48.4704 40.6867 48.6585C40.7122 48.7086 40.7122 48.7643 40.6867 48.8144C40.6281 48.9923 40.4175 49.2814 40.0915 49.6738C39.8506 49.9666 39.5474 50.315 39.1969 50.7176C38.1946 51.7863 36.8285 53.2796 34.7908 53.9274C34.7199 53.9494 34.6491 53.9699 34.5782 53.9904C32.4545 54.6272 30.549 54.8966 29.011 54.6697C28.5349 54.6118 28.0706 54.506 27.6299 54.3549C27.2041 54.2167 26.8108 54.0248 26.466 53.7869C26.4045 53.7439 26.3536 53.6925 26.3158 53.6354C26.1996 53.6778 26.091 53.7225 25.9927 53.7554C24.5637 55.5519 22.9576 57.2601 21.1889 58.8648C20.5162 59.4719 19.8364 60.0529 19.1492 60.6077L19.3505 60.5924L19.4317 60.5858C19.5734 60.3771 19.9929 60.11 20.6126 59.7732C20.896 59.6166 21.2304 59.446 21.596 59.2608C22.8629 58.6445 24.5662 57.832 26.5217 57.5538L26.7532 57.5231C28.8155 57.3035 30.7758 57.239 32.2788 57.5165C32.6548 57.5776 33.023 57.6643 33.3794 57.7756C34.258 58.0516 34.8238 58.4176 34.8711 58.6225C34.8811 58.6758 34.8645 58.7299 34.8248 58.7741C34.7124 58.9358 34.4167 59.1759 33.9745 59.4951C33.6486 59.733 33.2452 60.0141 32.7785 60.3391C31.4701 61.186 29.6771 62.3741 27.4967 62.6215C27.4211 62.6295 27.3465 62.6354 27.2709 62.6412C25.0112 62.8608 23.0783 62.7606 21.6574 62.2511C21.2137 62.1055 20.7966 61.9152 20.417 61.6852C20.0472 61.4707 19.7257 61.2103 19.4657 60.9144C19.4209 60.861 19.3889 60.8017 19.3712 60.7395C19.2258 60.7622 19.0878 60.7885 18.9726 60.801L18.8913 60.8112C17.6547 61.8002 16.4096 62.7064 15.1843 63.5299C13.7493 64.4932 12.3511 65.3489 11.0191 66.1036L11.0521 66.108C11.1693 66.1241 11.3015 66.1329 11.4461 66.1461L11.5273 66.1534C11.7229 65.9726 12.2047 65.7801 12.9028 65.5524C13.2259 65.4463 13.5962 65.3328 14.0053 65.2091C15.4224 64.816 17.3118 64.3 19.2957 64.349C19.3741 64.349 19.4525 64.3534 19.53 64.3578C21.6083 64.4764 23.5402 64.7384 24.9327 65.2552C25.2832 65.3769 25.6192 65.5222 25.937 65.6893C26.7249 66.1058 27.1783 66.556 27.1651 66.7617C27.1597 66.8154 27.1292 66.8656 27.0791 66.903C26.9251 67.0428 26.5709 67.2287 26.0541 67.4688C25.6762 67.6481 25.2039 67.8568 24.655 68.0983C23.1435 68.7118 21.0651 69.5792 18.8696 69.4628C18.794 69.4584 18.7184 69.4525 18.6438 69.4467C16.3765 69.2886 14.5126 68.875 13.259 68.1444C12.865 67.9291 12.5093 67.6747 12.2009 67.3876C11.8977 67.1178 11.6548 66.8108 11.482 66.4791C11.4519 66.4196 11.4359 66.3564 11.4347 66.2925C11.2864 66.2925 11.1438 66.2925 11.0276 66.2874L10.713 66.2756C10.302 66.5048 9.89582 66.7251 9.49904 66.9344C8.62991 67.4183 7.77023 67.8129 6.99934 68.2125L4.82179 69.23L3.02684 70.0089C2.50442 70.2351 2.05663 70.4034 1.69575 70.5527L0.58572 71L0 70.1143L1.11665 69.6751C1.47847 69.5301 1.9376 69.3618 2.45057 69.1458Z" fill="white"/>
</svg>
